<?xml version="1.0" standalone="no"?>
<!DOCTYPE svg PUBLIC "-//W3C//DTD SVG 20010904//EN"
 "http://www.w3.org/TR/2001/REC-SVG-20010904/DTD/svg10.dtd">
<svg version="1.0" xmlns="http://www.w3.org/2000/svg"
 width="65.500000pt" height="122.500000pt" viewBox="0 0 524.000000 980.000000"
 preserveAspectRatio="xMidYMid meet">

<g transform="translate(0.000000,980.000000) scale(0.100000,-0.100000)"
fill="#000000" stroke="none">
<path d="M2545 9787 c-104 -35 -187 -105 -226 -190 -23 -53 -25 -165 -3 -230
26 -76 18 -95 -61 -155 -203 -153 -444 -250 -698 -282 -128 -16 -205 -10 -228
18 -9 12 -22 49 -28 83 -15 85 -44 141 -101 192 -121 109 -333 101 -448 -16
-61 -63 -87 -126 -87 -217 1 -103 34 -171 128 -263 l69 -67 33 -123 c221 -808
375 -1377 375 -1384 0 -5 -19 -20 -42 -33 -98 -55 -201 -195 -227 -310 -13
-58 -13 -162 0 -220 30 -133 163 -297 271 -338 106 -40 180 -44 853 -49 661
-5 975 4 1050 29 40 13 80 59 91 105 11 41 -6 91 -46 142 l-40 50 -862 3 -863
3 -49 25 c-61 31 -86 74 -86 146 0 36 6 61 23 85 23 34 45 45 151 74 67 19
120 63 132 110 4 16 2 56 -5 90 -24 117 -309 1196 -398 1507 -7 24 9 26 245
33 290 8 430 40 659 150 127 60 203 108 370 230 64 47 122 84 129 81 7 -3 55
-36 106 -74 206 -152 307 -212 466 -277 215 -87 370 -113 682 -115 63 0 120
-4 127 -8 9 -6 -28 -156 -147 -587 -88 -319 -174 -632 -193 -695 l-33 -115
-89 -6 c-50 -4 -301 -8 -560 -9 -258 -1 -578 -5 -709 -9 l-239 -8 -23 -26
c-63 -74 -49 -207 28 -248 47 -25 193 -31 968 -37 763 -7 818 -8 843 -25 44
-29 67 -75 67 -136 0 -48 -3 -57 -37 -91 -23 -22 -62 -45 -98 -58 -93 -33
-127 -54 -152 -91 -100 -148 -193 -929 -193 -1611 0 -337 19 -514 82 -765 71
-287 167 -528 448 -1130 220 -472 270 -621 270 -810 0 -112 0 -113 -42 -196
-54 -109 -147 -203 -252 -255 l-75 -36 -253 -9 c-139 -4 -460 -8 -713 -9 -599
-1 -839 -11 -873 -37 -33 -25 -62 -80 -62 -120 0 -51 29 -112 61 -128 64 -34
162 -37 1319 -45 681 -4 1169 -12 1190 -17 66 -18 105 -46 195 -137 158 -159
174 -216 175 -618 l0 -198 -2291 0 -2291 0 4 278 c4 253 6 282 26 331 49 125
178 268 292 324 l65 32 402 3 402 4 56 53 c53 52 55 55 55 107 0 60 -23 106
-66 135 -15 9 -76 30 -136 45 -174 44 -279 117 -362 251 -60 98 -71 136 -70
247 1 189 42 309 266 790 275 587 393 891 468 1202 85 355 90 706 19 1353 -31
291 -41 328 -96 369 -65 48 -186 19 -228 -54 -26 -45 -25 -90 11 -461 23 -232
28 -336 29 -569 0 -316 -8 -389 -70 -632 -66 -261 -128 -416 -390 -983 -86
-187 -181 -396 -210 -465 -77 -178 -135 -423 -135 -564 0 -126 56 -301 140
-437 16 -27 26 -50 22 -52 -4 -3 -34 -8 -67 -11 -148 -18 -274 -71 -413 -175
-111 -84 -190 -178 -251 -298 -71 -139 -81 -226 -81 -688 l0 -361 53 -52 53
-52 2502 0 2503 0 55 58 55 57 -4 436 -5 436 -56 114 c-65 132 -130 222 -219
306 -132 123 -273 193 -433 213 -49 7 -92 15 -96 19 -4 4 13 42 39 86 96 165
132 324 113 497 -26 231 -85 395 -320 893 -319 675 -414 944 -467 1325 -21
150 -23 585 -4 860 30 451 85 865 118 903 10 11 54 43 98 72 178 115 264 269
253 454 -8 138 -97 285 -241 396 l-39 30 136 505 c75 278 166 615 204 750 l67
245 76 75 c60 59 81 88 98 133 59 159 -4 330 -149 405 -62 33 -69 34 -155 30
-76 -3 -98 -8 -144 -33 -97 -53 -142 -121 -173 -260 -18 -81 -32 -88 -166 -81
-121 7 -272 36 -374 72 -185 65 -431 210 -467 276 -14 24 -14 35 2 110 21 102
21 130 2 195 -42 143 -245 254 -380 210z"/>
</g>
</svg>
